<svg data-v-423bf9ae="" xmlns="http://www.w3.org/2000/svg" viewBox="0 0 411.9386904584526 163" class="iconAbove"><!----><!----><!----><g data-v-423bf9ae="" id="b7e5da43-edeb-409f-bcee-f9cabdd2e9b0" fill="white" transform="matrix(4.640684650161553,0,0,4.640684650161553,0.8469237614465328,101.32433563672444)"><path d="M4.86 1.54L4.86 1.54Q4.43 0.91 3.25 1.20L3.25 1.20L3.25 1.20Q2.29 1.43 1.65 2.14L1.65 2.14L1.65 2.14Q0.64 3.26 0.21 5.40L0.21 5.40L0.21 5.40Q-0.09 6.86-0.18 8.67L-0.18 8.67L-0.18 8.67Q-0.20 9.98-0.06 10.47L-0.06 10.47L-0.06 10.47Q0.21 11.44 1.30 11.50L1.30 11.50L1.30 11.50Q1.92 11.53 2.51 11.27L2.51 11.27L2.51 11.27Q3.10 10.99 3.47 10.51L3.47 10.51L3.47 10.51Q3.85 10.02 4.18 8.89L4.18 8.89L4.18 8.89Q4.26 8.64 3.60 8.76L3.60 8.76L3.60 8.76Q3.30 8.81 3.05 8.93L3.05 8.93L3.05 8.93Q2.78 9.06 2.75 9.15L2.75 9.15L2.75 9.15Q2.50 9.99 2.23 10.48L2.23 10.48L2.23 10.48Q2.11 10.68 1.98 10.83L1.98 10.83L1.98 10.83Q1.42 10.58 1.29 9.66L1.29 9.66L1.29 9.66Q1.26 9.42 1.28 8.20L1.28 8.20L1.28 8.20Q1.37 6.41 1.69 4.92L1.69 4.92L1.69 4.92Q2.15 2.75 3.19 1.80L3.19 1.80L3.19 1.80Q3.20 1.79 3.23 1.76L3.23 1.76L3.23 1.76Q3.59 2.01 3.68 2.75L3.68 2.75L3.68 2.75Q3.76 3.36 3.55 4.29L3.55 4.29L3.55 4.29Q3.21 5.76 3.21 5.80L3.21 5.80L3.21 5.80Q3.19 5.92 3.57 5.89L3.57 5.89L3.57 5.89Q3.83 5.87 3.99 5.82L3.99 5.82L3.99 5.82Q4.63 5.65 4.67 5.41L4.67 5.41L4.67 5.41Q4.72 5.07 4.87 4.41L4.87 4.41L4.87 4.41Q5.04 3.74 5.09 3.40L5.09 3.40L5.09 3.40Q5.28 2.17 4.86 1.54L4.86 1.54ZM9.88 4.41L9.88 4.41Q9.71 3.82 8.85 3.94L8.85 3.94L8.85 3.94Q8.17 4.04 7.64 4.40L7.64 4.40L7.64 4.40Q7.25 4.66 6.91 5.13L6.91 5.13L6.91 5.13Q7.32 3.24 8.01 0.53L8.01 0.53L8.01 0.53Q8.07 0.28 7.43 0.40L7.43 0.40L7.43 0.40Q7.12 0.45 6.87 0.57L6.87 0.57L6.87 0.57Q6.60 0.70 6.58 0.79L6.58 0.79L6.58 0.79Q5.01 6.96 4.55 10.85L4.55 10.85L4.55 10.85Q4.53 11.03 5.22 10.88L5.22 10.88L5.22 10.88Q5.91 10.73 6.00 10.53L6.00 10.53L6.00 10.53Q6.07 10.37 6.59 8.85L6.59 8.85L6.59 8.85Q7.11 7.33 7.55 6.36L7.55 6.36L7.55 6.36Q8.03 5.26 8.43 4.78L8.43 4.78L8.43 4.78Q8.48 4.95 8.50 5.37L8.50 5.37L8.50 5.37Q8.52 5.97 8.29 7.46L8.29 7.46L8.29 7.46Q8.23 7.90 7.85 9.10L7.85 9.10L7.85 9.10Q7.53 10.12 7.52 10.75L7.52 10.75L7.52 10.75Q7.52 10.83 7.75 10.84L7.75 10.84L7.75 10.84Q7.96 10.85 8.24 10.79L8.24 10.79L8.24 10.79Q8.97 10.64 8.98 10.36L8.98 10.36L8.98 10.36Q8.98 9.87 9.49 8.25L9.49 8.25L9.49 8.25Q9.65 7.76 9.78 6.86L9.78 6.86L9.78 6.86Q9.90 6.12 9.94 5.61L9.94 5.61L9.94 5.61Q10.00 4.83 9.88 4.41L9.88 4.41ZM11.08 4.42L11.08 4.42Q10.81 5.93 10.36 7.64L10.36 7.64L10.36 7.64Q10.17 8.35 9.91 9.22L9.91 9.22L9.91 9.22Q9.55 10.42 9.61 10.72L9.61 10.72L9.61 10.72Q9.66 10.95 10.38 10.77L10.38 10.77L10.38 10.77Q11.12 10.58 11.07 10.33L11.07 10.33L11.07 10.33Q11.01 10.06 11.34 8.96L11.34 8.96L11.34 8.96Q11.57 8.18 11.79 7.38L11.79 7.38L11.79 7.38Q12.24 5.70 12.52 4.16L12.52 4.16L12.52 4.16Q12.56 3.92 11.94 4.03L11.94 4.03L11.94 4.03Q11.63 4.09 11.38 4.20L11.38 4.20L11.38 4.20Q11.09 4.33 11.08 4.42L11.08 4.42ZM10.91 2.43L10.91 2.43Q11.20 2.63 11.41 2.83L11.41 2.83L11.41 2.83Q11.48 2.90 11.78 2.87L11.78 2.87L11.78 2.87Q12.06 2.84 12.35 2.74L12.35 2.74L12.35 2.74Q12.97 2.52 12.78 2.34L12.78 2.34L12.78 2.34Q12.58 2.13 12.28 1.93L12.28 1.93L12.28 1.93Q12.18 1.87 11.92 1.89L11.92 1.89L11.92 1.89Q11.63 1.92 11.35 2.02L11.35 2.02L11.35 2.02Q11.17 2.08 11.02 2.18L11.02 2.18L11.02 2.18Q10.77 2.34 10.91 2.43L10.91 2.43ZM15.28 4.18L15.28 4.18Q15.27 4.18 15.27 4.18L15.27 4.18L15.27 4.18L15.27 4.18Q15.28 4.18 15.28 4.18L15.28 4.18ZM16.91 4.01L16.91 4.01Q16.43 3.53 15.44 3.69L15.44 3.69L15.44 3.69Q14.37 3.87 13.62 4.55L13.62 4.55L13.62 4.55Q12.63 5.42 12.33 7.32L12.33 7.32L12.33 7.32Q12.00 9.30 12.55 10.34L12.55 10.34L12.55 10.34Q13.03 11.27 14.54 10.77L14.54 10.77L14.54 10.77Q15.58 10.44 16.21 9.38L16.21 9.38L16.21 9.38Q16.30 9.24 16.00 9.22L16.00 9.22L16.00 9.22Q15.80 9.21 15.63 9.25L15.63 9.25L15.63 9.25Q14.94 9.37 14.78 9.64L14.78 9.64L14.78 9.64Q14.59 9.96 14.38 10.19L14.38 10.19L14.38 10.19Q14.34 10.22 14.28 10.27L14.28 10.27L14.28 10.27Q14.10 10.15 13.95 9.85L13.95 9.85L13.95 9.85Q13.71 9.34 13.68 8.37L13.68 8.37L13.68 8.37Q13.66 7.59 13.81 6.80L13.81 6.80L13.81 6.80Q13.97 5.98 14.30 5.29L14.30 5.29L14.30 5.29Q14.66 4.58 15.13 4.27L15.13 4.27L15.13 4.27Q15.13 4.27 15.14 4.26L15.14 4.26L15.15 4.26L15.15 4.26Q15.18 4.27 15.23 4.29L15.23 4.29L15.23 4.29Q15.36 4.35 15.50 4.48L15.50 4.48L15.50 4.48Q15.92 4.85 15.92 5.58L15.92 5.58L15.92 5.58Q15.92 6.13 15.56 6.54L15.56 6.54L15.56 6.54Q15.42 6.70 15.59 6.75L15.59 6.75L15.59 6.75Q15.71 6.79 15.90 6.77L15.90 6.77L15.90 6.77Q16.63 6.71 16.88 6.43L16.88 6.43L16.88 6.43Q17.35 5.90 17.37 5.22L17.37 5.22L17.37 5.22Q17.40 4.51 16.91 4.01L16.91 4.01ZM19.37 4.90L19.37 4.90Q19.48 4.81 19.69 4.69L19.69 4.69L19.69 4.69Q19.75 4.65 19.84 4.59L19.84 4.59L19.84 4.59Q19.88 4.57 20.00 4.52L20.00 4.52L20.00 4.52Q20.02 4.51 20.08 4.48L20.08 4.48L20.08 4.48Q20.15 4.46 20.15 4.45L20.15 4.45L20.15 4.45Q20.19 4.44 20.22 4.42L20.22 4.42L20.22 4.42Q20.23 4.44 20.34 4.40L20.34 4.40L20.34 4.40Q20.34 4.41 20.36 4.41L20.36 4.41L20.36 4.41Q20.46 4.43 20.56 4.52L20.56 4.52L20.56 4.52Q20.73 4.68 20.65 5.11L20.65 5.11L20.65 5.11Q20.56 5.55 20.21 5.99L20.21 5.99L20.21 5.99Q19.87 6.43 19.40 6.76L19.40 6.76L19.40 6.76Q19.33 6.82 19.21 6.88L19.21 6.88L19.21 6.88Q19.20 6.88 19.20 6.88L19.20 6.88L19.20 6.88Q19.01 6.79 18.70 6.85L18.70 6.85L18.70 6.85Q18.70 6.82 19.02 5.23L19.02 5.23L19.02 5.23Q19.02 5.23 19.02 5.22L19.02 5.22L19.02 5.22Q19.03 5.22 19.03 5.22L19.03 5.22L19.03 5.22Q19.16 5.07 19.37 4.90L19.37 4.90ZM21.21 6.44L21.21 6.44Q21.83 5.84 22.00 5.35L22.00 5.35L22.00 5.35Q22.24 4.70 22.05 4.37L22.05 4.37L22.05 4.37Q21.86 4.04 21.25 4.02L21.25 4.02L21.25 4.02Q20.60 4.00 19.71 4.31L19.71 4.31L19.71 4.31Q19.46 4.40 19.20 4.52L19.20 4.52L19.20 4.52Q19.46 3.20 19.52 2.85L19.52 2.85L19.52 2.85Q19.61 2.43 19.78 1.76L19.78 1.76L19.78 1.76Q20.00 0.93 20.06 0.66L20.06 0.66L20.06 0.66Q20.11 0.42 19.47 0.53L19.47 0.53L19.47 0.53Q19.17 0.59 18.92 0.70L18.92 0.70L18.92 0.70Q18.63 0.83 18.61 0.92L18.61 0.92L18.61 0.92Q18.55 1.21 18.34 2.02L18.34 2.02L18.34 2.02Q18.17 2.70 18.08 3.11L18.08 3.11L18.08 3.11Q17.99 3.58 17.83 4.40L17.83 4.40L17.83 4.40Q17.66 5.30 17.59 5.67L17.59 5.67L17.59 5.67Q17.53 5.74 17.55 5.71L17.55 5.71L17.55 5.71Q17.49 5.80 17.43 5.89L17.43 5.89L17.43 5.89Q17.37 5.99 17.51 6.02L17.51 6.02L17.51 6.02Q17.26 7.27 17.00 8.30L17.00 8.30L17.00 8.30Q16.48 10.39 16.46 10.72L16.46 10.72L16.46 10.72Q16.46 10.79 16.69 10.81L16.69 10.81L16.69 10.81Q16.91 10.81 17.19 10.76L17.19 10.76L17.19 10.76Q17.92 10.62 17.92 10.33L17.92 10.33L17.92 10.33Q17.96 9.64 18.32 8.44L18.32 8.44L18.32 8.44Q18.68 9.15 19.26 10.81L19.26 10.81L19.26 10.81Q19.80 12.38 20.23 13.16L20.23 13.16L20.23 13.16Q20.36 13.41 21.08 13.18L21.08 13.18L21.08 13.18Q21.36 13.08 21.54 12.97L21.54 12.97L21.54 12.97Q21.73 12.84 21.69 12.77L21.69 12.77L21.69 12.77Q21.26 11.99 20.62 10.12L20.62 10.12L20.62 10.12Q20.02 8.37 19.49 7.51L19.49 7.51L19.49 7.51Q19.64 7.46 19.80 7.39L19.80 7.39L19.80 7.39Q20.52 7.10 21.21 6.44L21.21 6.44ZM23.23 7.05L23.23 7.05Q23.31 6.66 23.40 6.31L23.40 6.31L23.40 6.31Q23.60 5.80 23.86 5.24L23.86 5.24L23.86 5.24Q23.99 4.99 24.16 4.76L24.16 4.76L24.16 4.76Q24.21 4.68 24.29 4.59L24.29 4.59L24.29 4.59Q24.27 4.61 24.32 4.57L24.32 4.57L24.32 4.57Q24.34 4.59 24.38 4.61L24.38 4.61L24.38 4.61Q24.66 4.82 24.72 5.46L24.72 5.46L24.72 5.46Q24.79 6.01 24.54 6.95L24.54 6.95L24.54 6.95Q23.75 6.97 23.23 7.05L23.23 7.05ZM23.00 10.48L23.00 10.48Q23.00 10.48 23.00 10.48L23.00 10.48L23.00 10.48Q23.00 10.48 22.98 10.49L22.98 10.49L22.98 10.49Q22.99 10.49 23.00 10.48L23.00 10.48ZM24.49 4.42L24.49 4.42L24.49 4.42Q24.50 4.42 24.50 4.41L24.50 4.41L24.50 4.41Q24.50 4.42 24.49 4.42L24.49 4.42ZM26.18 5.11L26.18 5.11Q26.14 4.50 25.81 4.17L25.81 4.17L25.81 4.17Q25.44 3.80 24.46 3.98L24.46 3.98L24.46 3.98Q23.55 4.14 23.01 4.68L23.01 4.68L23.01 4.68Q22.64 5.04 22.35 5.69L22.35 5.69L22.35 5.69Q21.89 6.49 21.65 8.04L21.65 8.04L21.65 8.04Q21.52 8.93 21.53 9.63L21.53 9.63L21.53 9.63Q21.53 10.77 22.24 10.94L22.24 10.94L22.24 10.94Q22.70 11.06 23.54 10.78L23.54 10.78L23.54 10.78Q24.04 10.62 24.50 10.23L24.50 10.23L24.50 10.23Q25.31 9.57 25.46 8.68L25.46 8.68L25.46 8.68Q25.50 8.44 24.88 8.54L24.88 8.54L24.88 8.54Q24.57 8.60 24.32 8.72L24.32 8.72L24.32 8.72Q24.04 8.85 24.02 8.94L24.02 8.94L24.02 8.94Q23.93 9.50 23.50 10.04L23.50 10.04L23.50 10.04Q23.41 10.15 23.26 10.28L23.26 10.28L23.26 10.28Q23.13 10.17 23.04 9.85L23.04 9.85L23.04 9.85Q22.96 9.51 22.99 8.76L22.99 8.76L22.99 8.76Q23.03 8.08 23.14 7.53L23.14 7.53L23.14 7.53Q23.45 7.50 23.98 7.50L23.98 7.50L23.98 7.50Q24.67 7.51 24.82 7.50L24.82 7.50L24.82 7.50Q25.05 7.49 25.39 7.38L25.39 7.38L25.39 7.38Q25.81 7.22 25.85 7.08L25.85 7.08L25.85 7.08Q26.25 5.92 26.18 5.11L26.18 5.11ZM31.14 4.50L31.14 4.50Q31.07 4.33 30.54 4.44L30.54 4.44L30.54 4.44Q29.34 4.66 28.52 5.45L28.52 5.45L28.52 5.45Q28.33 5.63 28.16 5.84L28.16 5.84L28.16 5.84Q28.40 4.81 28.51 4.05L28.51 4.05L28.51 4.05Q28.53 3.92 28.14 3.96L28.14 3.96L28.14 3.96Q27.89 3.98 27.72 4.03L27.72 4.03L27.72 4.03Q27.08 4.20 27.05 4.44L27.05 4.44L27.05 4.44Q26.92 5.31 26.36 7.64L26.36 7.64L26.36 7.64Q25.87 9.64 25.79 10.86L25.79 10.86L25.79 10.86Q25.77 11.04 26.46 10.89L26.46 10.89L26.46 10.89Q27.16 10.75 27.23 10.53L27.23 10.53L27.23 10.53Q28.10 8.17 28.57 7.23L28.57 7.23L28.57 7.23Q29.06 6.24 29.54 5.65L29.54 5.65L29.54 5.65Q29.67 5.50 29.82 5.36L29.82 5.36L29.82 5.36Q30.03 6.30 29.63 8.51L29.63 8.51L29.63 8.51Q29.08 11.60 28.77 12.71L28.77 12.71L28.77 12.71Q28.70 12.96 29.36 12.84L29.36 12.84L29.36 12.84Q29.66 12.78 29.91 12.67L29.91 12.67L29.91 12.67Q30.19 12.54 30.21 12.45L30.21 12.45L30.21 12.45Q30.52 11.34 31.09 8.18L31.09 8.18L31.09 8.18Q31.29 7.02 31.34 6.25L31.34 6.25L31.34 6.25Q31.40 5.17 31.14 4.50L31.14 4.50ZM34.54 9.37L34.54 9.37Q34.44 9.50 34.19 9.70L34.19 9.70L34.19 9.70Q34.15 9.73 34.04 9.80L34.04 9.80L34.04 9.80Q33.99 9.84 33.93 9.87L33.93 9.87L33.93 9.87Q33.82 9.94 33.83 9.93L33.83 9.93L33.83 9.93Q33.74 9.97 33.63 10.03L33.63 10.03L33.63 10.03Q33.61 10.04 33.54 10.06L33.54 10.06L33.54 10.06Q33.54 10.07 33.43 10.11L33.43 10.11L33.43 10.11Q33.42 10.11 33.35 10.14L33.35 10.14L33.35 10.14Q33.27 10.16 33.26 10.17L33.26 10.17L33.26 10.17Q33.17 10.19 33.07 10.21L33.07 10.21L33.07 10.21Q33.04 10.23 32.90 10.25L32.90 10.25L32.90 10.25Q32.90 10.25 32.85 10.26L32.85 10.26L32.85 10.26Q32.87 10.26 32.73 10.27L32.73 10.27L32.73 10.27Q32.66 10.28 32.53 10.29L32.53 10.29L32.53 10.29Q32.56 10.29 32.38 10.29L32.38 10.29L32.38 10.29Q32.46 10.03 32.82 8.24L32.82 8.24L32.82 8.24Q33.14 8.20 33.41 8.05L33.41 8.05L33.41 8.05Q33.54 7.99 33.68 7.93L33.68 7.93L33.68 7.93Q33.69 7.92 33.69 7.92L33.69 7.92L33.69 7.92Q33.69 7.92 33.70 7.92L33.70 7.92L33.70 7.92Q33.78 7.88 33.91 7.84L33.91 7.84L33.91 7.84Q33.92 7.84 33.92 7.83L33.92 7.83L33.93 7.83L33.93 7.83Q33.95 7.83 34.01 7.81L34.01 7.81L34.01 7.81Q34.08 7.79 34.09 7.79L34.09 7.79L34.09 7.79Q34.13 7.79 34.17 7.78L34.17 7.78L34.17 7.78Q34.21 7.77 34.25 7.77L34.25 7.77L34.25 7.77Q34.25 7.77 34.26 7.77L34.26 7.77L34.26 7.77Q34.28 7.77 34.31 7.77L34.31 7.77L34.31 7.77Q34.34 7.77 34.36 7.77L34.36 7.77L34.36 7.77Q34.37 7.77 34.41 7.78L34.41 7.78L34.41 7.78Q34.54 7.81 34.64 7.88L34.64 7.88L34.64 7.88Q34.87 8.03 34.87 8.46L34.87 8.46L34.87 8.46Q34.87 8.93 34.54 9.37L34.54 9.37ZM34.16 6.15L34.16 6.15Q33.67 6.95 32.98 7.54L32.98 7.54L32.98 7.54Q33.12 6.95 33.39 6.02L33.39 6.02L33.39 6.02Q34.12 3.45 34.30 2.44L34.30 2.44L34.30 2.44Q34.82 2.95 34.88 3.83L34.88 3.83L34.88 3.83Q34.96 4.83 34.16 6.15L34.16 6.15ZM34.48 7.25L34.48 7.25Q35.09 6.67 35.55 5.95L35.55 5.95L35.55 5.95Q36.46 4.56 36.33 3.30L36.33 3.30L36.33 3.30Q36.22 2.15 35.21 1.62L35.21 1.62L35.21 1.62Q34.19 1.08 32.59 1.55L32.59 1.55L32.59 1.55Q31.86 1.76 31.91 1.96L31.91 1.96L31.91 1.96Q31.98 2.20 32.70 1.99L32.70 1.99L32.70 1.99Q32.88 1.93 32.83 1.95L32.83 1.95L32.83 1.95Q32.89 1.94 32.90 1.93L32.90 1.93L32.90 1.93Q32.92 1.93 32.93 1.93L32.93 1.93L32.93 1.93Q32.97 1.93 33.00 1.93L33.00 1.93L33.00 1.93Q32.98 1.97 32.97 2.02L32.97 2.02L32.97 2.02Q32.82 3.23 31.94 6.28L31.94 6.28L31.94 6.28Q31.60 7.50 31.40 8.38L31.40 8.38L31.40 8.38Q30.91 10.71 30.92 10.66L30.92 10.66L30.92 10.66Q30.86 10.84 31.22 10.83L31.22 10.83L31.22 10.83Q31.28 10.87 31.41 10.88L31.41 10.88L31.41 10.88Q32.95 10.93 34.58 10.16L34.58 10.16L34.58 10.16Q36.19 9.39 36.33 8.16L36.33 8.16L36.33 8.16Q36.46 6.88 34.48 7.25L34.48 7.25ZM40.46 4.53L40.46 4.53Q40.15 4.35 39.48 4.50L39.48 4.50L39.48 4.50Q38.99 4.62 38.58 4.94L38.58 4.94L38.58 4.94Q38.58 4.94 38.57 4.94L38.57 4.94L38.57 4.94Q38.57 4.94 38.56 4.95L38.56 4.95L38.56 4.95Q38.62 4.53 38.58 4.16L38.58 4.16L38.58 4.16Q38.56 4.07 38.33 4.05L38.33 4.05L38.33 4.05Q38.11 4.05 37.82 4.12L37.82 4.12L37.82 4.12Q37.08 4.29 37.11 4.55L37.11 4.55L37.11 4.55Q37.17 5.05 36.61 7.33L36.61 7.33L36.61 7.33Q36.51 7.73 36.42 8.28L36.42 8.28L36.42 8.28Q36.05 9.37 35.94 10.66L35.94 10.66L35.94 10.66Q35.94 10.73 35.94 10.73L35.94 10.73L35.94 10.73Q35.92 10.90 36.62 10.77L36.62 10.77L36.62 10.77Q37.32 10.63 37.39 10.40L37.39 10.40L37.39 10.40Q37.54 9.87 37.85 8.07L37.85 8.07L37.85 8.07Q38.36 6.54 39.33 5.39L39.33 5.39L39.33 5.39Q39.38 5.61 39.31 5.93L39.31 5.93L39.31 5.93Q39.22 6.43 38.89 7.06L38.89 7.06L38.89 7.06Q38.62 7.59 38.38 7.79L38.38 7.79L38.38 7.79Q38.21 7.94 38.41 8.00L38.41 8.00L38.41 8.00Q38.55 8.04 38.72 8.03L38.72 8.03L38.72 8.03Q39.37 7.96 39.70 7.68L39.70 7.68L39.70 7.68Q40.02 7.40 40.36 6.75L40.36 6.75L40.36 6.75Q40.70 6.10 40.80 5.46L40.80 5.46L40.80 5.46Q40.89 4.79 40.46 4.53L40.46 4.53ZM41.83 7.05L41.83 7.05Q41.91 6.66 42 6.31L42 6.31L42 6.31Q42.20 5.80 42.46 5.24L42.46 5.24L42.46 5.24Q42.59 4.99 42.76 4.76L42.76 4.76L42.76 4.76Q42.81 4.68 42.90 4.59L42.90 4.59L42.90 4.59Q42.88 4.61 42.92 4.57L42.92 4.57L42.92 4.57Q42.94 4.59 42.98 4.61L42.98 4.61L42.98 4.61Q43.26 4.82 43.32 5.46L43.32 5.46L43.32 5.46Q43.39 6.01 43.14 6.95L43.14 6.95L43.14 6.95Q42.35 6.97 41.83 7.05L41.83 7.05ZM41.60 10.48L41.60 10.48Q41.60 10.48 41.60 10.48L41.60 10.48L41.60 10.48Q41.60 10.48 41.58 10.49L41.58 10.49L41.58 10.49Q41.59 10.49 41.60 10.48L41.60 10.48ZM43.09 4.42L43.09 4.42L43.09 4.42Q43.10 4.42 43.10 4.41L43.10 4.41L43.10 4.41Q43.10 4.42 43.09 4.42L43.09 4.42ZM44.78 5.11L44.78 5.11Q44.74 4.50 44.41 4.17L44.41 4.17L44.41 4.17Q44.04 3.80 43.06 3.98L43.06 3.98L43.06 3.98Q42.15 4.14 41.61 4.68L41.61 4.68L41.61 4.68Q41.24 5.04 40.95 5.69L40.95 5.69L40.95 5.69Q40.49 6.49 40.25 8.04L40.25 8.04L40.25 8.04Q40.12 8.93 40.13 9.63L40.13 9.63L40.13 9.63Q40.13 10.77 40.84 10.94L40.84 10.94L40.84 10.94Q41.30 11.06 42.14 10.78L42.14 10.78L42.14 10.78Q42.64 10.62 43.10 10.23L43.10 10.23L43.10 10.23Q43.91 9.57 44.06 8.68L44.06 8.68L44.06 8.68Q44.10 8.44 43.48 8.54L43.48 8.54L43.48 8.54Q43.17 8.60 42.92 8.72L42.92 8.72L42.92 8.72Q42.64 8.85 42.62 8.94L42.62 8.94L42.62 8.94Q42.53 9.50 42.10 10.04L42.10 10.04L42.10 10.04Q42.01 10.15 41.86 10.28L41.86 10.28L41.86 10.28Q41.73 10.17 41.64 9.85L41.64 9.85L41.64 9.85Q41.56 9.51 41.59 8.76L41.59 8.76L41.59 8.76Q41.63 8.08 41.74 7.53L41.74 7.53L41.74 7.53Q42.05 7.50 42.58 7.50L42.58 7.50L42.58 7.50Q43.27 7.51 43.42 7.50L43.42 7.50L43.42 7.50Q43.65 7.49 43.99 7.38L43.99 7.38L43.99 7.38Q44.41 7.22 44.45 7.08L44.45 7.08L44.45 7.08Q44.85 5.92 44.78 5.11L44.78 5.11ZM46.46 9.01L46.46 9.01Q46.01 9.63 45.88 9.78L45.88 9.78L45.88 9.78Q45.84 9.69 45.81 9.60L45.81 9.60L45.81 9.60Q45.59 8.99 45.74 7.95L45.74 7.95L45.74 7.95Q45.86 7.14 46.26 6.16L46.26 6.16L46.26 6.16Q46.41 5.80 46.61 5.44L46.61 5.44L46.61 5.44Q46.74 5.22 46.91 5.04L46.91 5.04L46.91 5.04Q47.07 4.88 47.31 4.70L47.31 4.70L47.31 4.70Q47.32 4.69 47.33 4.68L47.33 4.68L47.33 4.68Q47.34 4.68 47.37 4.66L47.37 4.66L47.37 4.66Q47.41 4.63 47.48 4.58L47.48 4.58L47.48 4.58Q47.48 4.58 47.49 4.57L47.49 4.57L47.49 4.57Q47.69 4.74 47.66 5.37L47.66 5.37L47.66 5.37Q47.65 5.48 48.08 5.44L48.08 5.44L48.08 5.44Q47.97 5.98 47.75 6.88L47.75 6.88L47.75 6.88Q47.38 7.77 46.46 9.01L46.46 9.01ZM49.58 4.85L49.58 4.85Q49.58 4.72 49.12 4.77L49.12 4.77L49.12 4.77Q49.10 4.17 48.73 4.01L48.73 4.01L48.73 4.01Q48.15 3.75 47.12 4.17L47.12 4.17L47.12 4.17Q45.70 4.74 45.11 5.81L45.11 5.81L45.11 5.81Q44.17 7.56 44.23 9.26L44.23 9.26L44.23 9.26Q44.26 10.25 44.74 10.56L44.74 10.56L44.74 10.56Q44.97 10.71 45.57 10.63L45.57 10.63L45.57 10.63Q46.13 10.55 46.60 10.22L46.60 10.22L46.60 10.22Q46.87 10.04 47.14 9.75L47.14 9.75L47.14 9.75Q47.06 10.31 47.02 10.81L47.02 10.81L47.02 10.81Q47.02 10.88 47.24 10.90L47.24 10.90L47.24 10.90Q47.46 10.90 47.74 10.85L47.74 10.85L47.74 10.85Q48.46 10.71 48.48 10.42L48.48 10.42L48.48 10.42Q48.56 9.17 49.18 6.64L49.18 6.64L49.18 6.64Q49.55 5.73 49.58 4.85L49.58 4.85ZM53.29 6.07L53.29 6.07Q53.84 5.29 53.81 4.73L53.81 4.73L53.81 4.73Q53.80 4.34 53.36 4.14L53.36 4.14L53.36 4.14Q53.04 3.99 52.59 3.97L52.59 3.97L52.59 3.97Q51.63 3.93 50.86 4.44L50.86 4.44L50.86 4.44Q50.03 4.98 49.93 5.89L49.93 5.89L49.93 5.89Q49.86 6.45 50.29 7.12L50.29 7.12L50.29 7.12Q50.44 7.33 50.70 7.66L50.70 7.66L50.70 7.66Q51.01 8.05 51.09 8.17L51.09 8.17L51.09 8.17Q52.21 9.73 51.43 10.41L51.43 10.41L51.43 10.41Q51.34 10.48 51.22 10.53L51.22 10.53L51.22 10.53Q51.32 10.49 51.44 10.47L51.44 10.47L51.44 10.47Q51.51 10.45 51.43 10.45L51.43 10.45L51.43 10.45Q51.15 10.43 50.79 10.16L50.79 10.16L50.79 10.16Q50.46 9.91 50.39 9.52L50.39 9.52L50.39 9.52Q50.33 9.15 50.54 8.79L50.54 8.79L50.54 8.79Q50.63 8.65 50.33 8.63L50.33 8.63L50.33 8.63Q50.13 8.63 49.96 8.66L49.96 8.66L49.96 8.66Q49.26 8.78 49.10 9.05L49.10 9.05L49.10 9.05Q48.67 9.79 49.16 10.40L49.16 10.40L49.16 10.40Q49.62 10.98 50.53 11.04L50.53 11.04L50.53 11.04Q51.65 11.12 52.70 10.33L52.70 10.33L52.70 10.33Q53.27 9.90 53.23 9.21L53.23 9.21L53.23 9.21Q53.20 8.74 52.72 8.02L52.72 8.02L52.72 8.02Q52.75 8.07 51.88 6.88L51.88 6.88L51.88 6.88Q51.43 6.26 51.39 5.78L51.39 5.78L51.39 5.78Q51.32 5.07 51.83 4.58L51.83 4.58L51.83 4.58Q51.88 4.53 51.89 4.52L51.89 4.52L51.89 4.52Q51.94 4.48 51.94 4.48L51.94 4.48L51.94 4.48Q51.97 4.47 51.99 4.46L51.99 4.46L51.99 4.46Q51.84 4.53 51.69 4.55L51.69 4.55L51.69 4.55Q51.56 4.57 51.68 4.55L51.68 4.55L51.68 4.55Q51.58 4.56 51.69 4.56L51.69 4.56L51.69 4.56Q52.14 4.58 52.30 4.93L52.30 4.93L52.30 4.93Q52.52 5.38 51.84 6.33L51.84 6.33L51.84 6.33Q51.75 6.47 52.06 6.48L52.06 6.48L52.06 6.48Q52.28 6.49 52.42 6.47L52.42 6.47L52.42 6.47Q53.09 6.34 53.29 6.07L53.29 6.07ZM57.68 4.08L57.68 4.08Q57.13 4.06 56.37 4.06L56.37 4.06L56.37 4.06Q56.64 3.21 57.02 2.17L57.02 2.17L57.02 2.17Q57.11 1.92 56.44 2.04L56.44 2.04L56.44 2.04Q55.67 2.18 55.58 2.44L55.58 2.44L55.58 2.44Q55.25 3.32 55.01 4.08L55.01 4.08L55.01 4.08Q54.80 4.08 54.65 4.08L54.65 4.08L54.65 4.08Q54.07 4.08 53.62 4.36L53.62 4.36L53.62 4.36Q53.44 4.47 53.46 4.57L53.46 4.57L53.46 4.57Q53.49 4.67 53.70 4.67L53.70 4.67L53.70 4.67Q54.01 4.67 54.83 4.66L54.83 4.66L54.83 4.66Q54.51 5.76 54.33 6.75L54.33 6.75L54.33 6.75Q54.26 7.12 54.17 7.70L54.17 7.70L54.17 7.70Q54.07 8.47 54.04 8.65L54.04 8.65L54.04 8.65Q53.86 9.73 54.15 10.40L54.15 10.40L54.15 10.40Q54.42 11.02 55.00 11.02L55.00 11.02L55.00 11.02Q56.03 11.01 56.68 10.36L56.68 10.36L56.68 10.36Q57.54 9.47 57.69 8.22L57.69 8.22L57.69 8.22Q57.70 8.16 57.47 8.15L57.47 8.15L57.47 8.15Q57.26 8.13 56.98 8.19L56.98 8.19L56.98 8.19Q56.26 8.32 56.22 8.61L56.22 8.61L56.22 8.61Q56.14 9.32 55.64 10.09L55.64 10.09L55.64 10.09Q55.48 9.79 55.43 9.34L55.43 9.34L55.43 9.34Q55.38 8.91 55.58 7.82L55.58 7.82L55.58 7.82Q55.60 7.63 55.72 6.88L55.72 6.88L55.72 6.88Q55.80 6.30 55.88 5.93L55.88 5.93L55.88 5.93Q56.01 5.32 56.20 4.66L56.20 4.66L56.20 4.66Q56.51 4.66 56.73 4.67L56.73 4.67L56.73 4.67Q57.27 4.70 57.76 4.40L57.76 4.40L57.76 4.40Q57.94 4.29 57.91 4.19L57.91 4.19L57.91 4.19Q57.89 4.09 57.68 4.08L57.68 4.08ZM62.54 2.35L62.54 2.35Q61.58 2.17 60.57 2.15L60.57 2.15L60.57 2.15Q60.48 2.03 60.00 2.11L60.00 2.11L60.00 2.11Q59.90 2.13 59.79 2.16L59.79 2.16L59.79 2.16Q58.72 2.22 57.68 2.46L57.68 2.46L57.68 2.46Q56.94 2.63 57.01 2.88L57.01 2.88L57.01 2.88Q57.06 3.08 57.78 2.91L57.78 2.91L57.78 2.91Q57.79 2.91 57.80 2.90L57.80 2.90L57.80 2.90Q57.82 2.90 57.83 2.89L57.83 2.89L57.83 2.89Q57.91 2.88 58.06 2.85L58.06 2.85L58.06 2.85Q58.23 2.82 58.45 2.80L58.45 2.80L58.45 2.80Q58.74 2.76 59.07 2.75L59.07 2.75L59.07 2.75Q57.65 7.40 57.26 10.96L57.26 10.96L57.26 10.96Q57.25 11.02 57.48 11.03L57.48 11.03L57.48 11.03Q57.69 11.04 57.97 10.99L57.97 10.99L57.97 10.99Q58.69 10.86 58.72 10.56L58.72 10.56L58.72 10.56Q59.10 7.19 60.42 2.78L60.42 2.78L60.42 2.78Q60.89 2.82 61.33 2.91L61.33 2.91L61.33 2.91Q61.76 2.99 62.35 2.72L62.35 2.72L62.35 2.72Q62.51 2.65 62.60 2.54L62.60 2.54L62.60 2.54Q62.75 2.39 62.54 2.35L62.54 2.35ZM63.10 9.01L63.10 9.01Q62.64 9.63 62.51 9.78L62.51 9.78L62.51 9.78Q62.47 9.69 62.44 9.60L62.44 9.60L62.44 9.60Q62.22 8.99 62.37 7.95L62.37 7.95L62.37 7.95Q62.49 7.14 62.89 6.16L62.89 6.16L62.89 6.16Q63.04 5.80 63.24 5.44L63.24 5.44L63.24 5.44Q63.37 5.22 63.54 5.04L63.54 5.04L63.54 5.04Q63.70 4.88 63.94 4.70L63.94 4.70L63.94 4.70Q63.95 4.69 63.96 4.68L63.96 4.68L63.96 4.68Q63.97 4.68 64.00 4.66L64.00 4.66L64.00 4.66Q64.04 4.63 64.11 4.58L64.11 4.58L64.11 4.58Q64.11 4.58 64.12 4.57L64.12 4.57L64.12 4.57Q64.33 4.74 64.29 5.37L64.29 5.37L64.29 5.37Q64.29 5.48 64.71 5.44L64.71 5.44L64.71 5.44Q64.60 5.98 64.38 6.88L64.38 6.88L64.38 6.88Q64.01 7.77 63.10 9.01L63.10 9.01ZM66.21 4.85L66.21 4.85Q66.21 4.72 65.75 4.77L65.75 4.77L65.75 4.77Q65.73 4.17 65.37 4.01L65.37 4.01L65.37 4.01Q64.78 3.75 63.75 4.17L63.75 4.17L63.75 4.17Q62.33 4.74 61.74 5.81L61.74 5.81L61.74 5.81Q60.80 7.56 60.86 9.26L60.86 9.26L60.86 9.26Q60.89 10.25 61.37 10.56L61.37 10.56L61.37 10.56Q61.60 10.71 62.20 10.63L62.20 10.63L62.20 10.63Q62.76 10.55 63.23 10.22L63.23 10.22L63.23 10.22Q63.50 10.04 63.77 9.75L63.77 9.75L63.77 9.75Q63.69 10.31 63.66 10.81L63.66 10.81L63.66 10.81Q63.65 10.88 63.88 10.90L63.88 10.90L63.88 10.90Q64.09 10.90 64.37 10.85L64.37 10.85L64.37 10.85Q65.09 10.71 65.11 10.42L65.11 10.42L65.11 10.42Q65.19 9.17 65.81 6.64L65.81 6.64L65.81 6.64Q66.18 5.73 66.21 4.85L66.21 4.85ZM68.25 4.90L68.25 4.90Q68.36 4.81 68.56 4.69L68.56 4.69L68.56 4.69Q68.63 4.65 68.72 4.59L68.72 4.59L68.72 4.59Q68.76 4.57 68.87 4.52L68.87 4.52L68.87 4.52Q68.89 4.51 68.95 4.48L68.95 4.48L68.95 4.48Q69.02 4.46 69.03 4.45L69.03 4.45L69.03 4.45Q69.07 4.44 69.10 4.42L69.10 4.42L69.10 4.42Q69.10 4.44 69.21 4.40L69.21 4.40L69.21 4.40Q69.22 4.41 69.23 4.41L69.23 4.41L69.23 4.41Q69.34 4.43 69.44 4.52L69.44 4.52L69.44 4.52Q69.61 4.68 69.53 5.11L69.53 5.11L69.53 5.11Q69.44 5.55 69.09 5.99L69.09 5.99L69.09 5.99Q68.75 6.43 68.28 6.76L68.28 6.76L68.28 6.76Q68.20 6.82 68.09 6.88L68.09 6.88L68.09 6.88Q68.08 6.88 68.07 6.88L68.07 6.88L68.07 6.88Q67.89 6.79 67.57 6.85L67.57 6.85L67.57 6.85Q67.58 6.82 67.90 5.23L67.90 5.23L67.90 5.23Q67.90 5.23 67.90 5.22L67.90 5.22L67.90 5.22Q67.91 5.22 67.91 5.22L67.91 5.22L67.91 5.22Q68.04 5.07 68.25 4.90L68.25 4.90ZM70.08 6.44L70.08 6.44Q70.70 5.84 70.88 5.35L70.88 5.35L70.88 5.35Q71.12 4.70 70.92 4.37L70.92 4.37L70.92 4.37Q70.74 4.04 70.12 4.02L70.12 4.02L70.12 4.02Q69.47 4.00 68.58 4.31L68.58 4.31L68.58 4.31Q68.33 4.40 68.08 4.52L68.08 4.52L68.08 4.52Q68.33 3.20 68.40 2.85L68.40 2.85L68.40 2.85Q68.48 2.43 68.66 1.76L68.66 1.76L68.66 1.76Q68.87 0.93 68.93 0.66L68.93 0.66L68.93 0.66Q68.99 0.42 68.35 0.53L68.35 0.53L68.35 0.53Q68.04 0.59 67.79 0.70L67.79 0.70L67.79 0.70Q67.51 0.83 67.49 0.92L67.49 0.92L67.49 0.92Q67.42 1.21 67.22 2.02L67.22 2.02L67.22 2.02Q67.05 2.70 66.96 3.11L66.96 3.11L66.96 3.11Q66.86 3.58 66.71 4.40L66.71 4.40L66.71 4.40Q66.54 5.30 66.47 5.67L66.47 5.67L66.47 5.67Q66.41 5.74 66.43 5.71L66.43 5.71L66.43 5.71Q66.36 5.80 66.31 5.89L66.31 5.89L66.31 5.89Q66.25 5.99 66.39 6.02L66.39 6.02L66.39 6.02Q66.14 7.27 65.88 8.30L65.88 8.30L65.88 8.30Q65.36 10.39 65.34 10.72L65.34 10.72L65.34 10.72Q65.34 10.79 65.56 10.81L65.56 10.81L65.56 10.81Q65.78 10.81 66.06 10.76L66.06 10.76L66.06 10.76Q66.79 10.62 66.80 10.33L66.80 10.33L66.80 10.33Q66.83 9.64 67.20 8.44L67.20 8.44L67.20 8.44Q67.56 9.15 68.13 10.81L68.13 10.81L68.13 10.81Q68.67 12.38 69.10 13.16L69.10 13.16L69.10 13.16Q69.24 13.41 69.95 13.18L69.95 13.18L69.95 13.18Q70.23 13.08 70.42 12.97L70.42 12.97L70.42 12.97Q70.61 12.84 70.57 12.77L70.57 12.77L70.57 12.77Q70.14 11.99 69.49 10.12L69.49 10.12L69.49 10.12Q68.89 8.37 68.37 7.51L68.37 7.51L68.37 7.51Q68.52 7.46 68.68 7.39L68.68 7.39L68.68 7.39Q69.40 7.10 70.08 6.44L70.08 6.44ZM72.11 7.05L72.11 7.05Q72.19 6.66 72.28 6.31L72.28 6.31L72.28 6.31Q72.47 5.80 72.74 5.24L72.74 5.24L72.74 5.24Q72.87 4.99 73.04 4.76L73.04 4.76L73.04 4.76Q73.09 4.68 73.17 4.59L73.17 4.59L73.17 4.59Q73.15 4.61 73.19 4.57L73.19 4.57L73.19 4.57Q73.22 4.59 73.26 4.61L73.26 4.61L73.26 4.61Q73.53 4.82 73.60 5.46L73.60 5.46L73.60 5.46Q73.67 6.01 73.42 6.95L73.42 6.95L73.42 6.95Q72.63 6.97 72.11 7.05L72.11 7.05ZM71.87 10.48L71.87 10.48Q71.87 10.48 71.87 10.48L71.87 10.48L71.87 10.48Q71.87 10.48 71.85 10.49L71.85 10.49L71.85 10.49Q71.87 10.49 71.87 10.48L71.87 10.48ZM73.37 4.42L73.37 4.42L73.37 4.42Q73.38 4.42 73.38 4.41L73.38 4.41L73.38 4.41Q73.38 4.42 73.37 4.42L73.37 4.42ZM75.06 5.11L75.06 5.11Q75.02 4.50 74.68 4.17L74.68 4.17L74.68 4.17Q74.31 3.80 73.34 3.98L73.34 3.98L73.34 3.98Q72.43 4.14 71.89 4.68L71.89 4.68L71.89 4.68Q71.52 5.04 71.22 5.69L71.22 5.69L71.22 5.69Q70.77 6.49 70.53 8.04L70.53 8.04L70.53 8.04Q70.40 8.93 70.40 9.63L70.40 9.63L70.40 9.63Q70.40 10.77 71.11 10.94L71.11 10.94L71.11 10.94Q71.58 11.06 72.41 10.78L72.41 10.78L72.41 10.78Q72.91 10.62 73.38 10.23L73.38 10.23L73.38 10.23Q74.18 9.57 74.33 8.68L74.33 8.68L74.33 8.68Q74.38 8.44 73.75 8.54L73.75 8.54L73.75 8.54Q73.45 8.60 73.20 8.72L73.20 8.72L73.20 8.72Q72.91 8.85 72.90 8.94L72.90 8.94L72.90 8.94Q72.80 9.50 72.38 10.04L72.38 10.04L72.38 10.04Q72.28 10.15 72.13 10.28L72.13 10.28L72.13 10.28Q72.00 10.17 71.92 9.85L71.92 9.85L71.92 9.85Q71.83 9.51 71.87 8.76L71.87 8.76L71.87 8.76Q71.91 8.08 72.02 7.53L72.02 7.53L72.02 7.53Q72.32 7.50 72.86 7.50L72.86 7.50L72.86 7.50Q73.55 7.51 73.70 7.50L73.70 7.50L73.70 7.50Q73.93 7.49 74.27 7.38L74.27 7.38L74.27 7.38Q74.68 7.22 74.73 7.08L74.73 7.08L74.73 7.08Q75.13 5.92 75.06 5.11L75.06 5.11ZM77.09 8.98L77.09 8.98Q76.82 9.59 76.46 10.07L76.46 10.07L76.46 10.07Q76.36 10.19 76.23 10.32L76.23 10.32L76.23 10.32Q76.10 10.16 76.03 9.83L76.03 9.83L76.03 9.83Q75.82 8.78 76.38 6.77L76.38 6.77L76.38 6.77Q76.61 5.93 76.92 5.26L76.92 5.26L76.92 5.26Q77.03 5.01 77.16 4.80L77.16 4.80L77.16 4.80Q77.59 5.34 77.64 6.34L77.64 6.34L77.64 6.34Q77.69 7.59 77.09 8.98L77.09 8.98ZM78.09 3.95L78.09 3.95Q77.83 3.80 77.16 4.03L77.16 4.03L77.16 4.03Q76.89 4.12 76.73 4.26L76.73 4.26L76.73 4.26Q76.43 4.33 76.24 4.46L76.24 4.46L76.24 4.46Q75.76 4.80 75.35 5.80L75.35 5.80L75.35 5.80Q74.96 6.75 74.72 7.93L74.72 7.93L74.72 7.93Q74.46 9.18 74.54 9.99L74.54 9.99L74.54 9.99Q74.63 10.92 75.26 11.01L75.26 11.01L75.26 11.01Q75.87 11.08 76.53 10.83L76.53 10.83L76.53 10.83Q77.16 10.60 77.61 10.15L77.61 10.15L77.61 10.15Q78.33 9.43 78.76 8.11L78.76 8.11L78.76 8.11Q79.17 6.90 79.12 5.87L79.12 5.87L79.12 5.87Q79.04 4.47 78.09 3.95L78.09 3.95ZM83.13 4.49L83.13 4.49Q82.84 5.29 81.22 8.25L81.22 8.25L81.22 8.25Q80.86 8.94 80.50 9.46L80.50 9.46L80.50 9.46Q80.64 6.56 82.04 4.18L82.04 4.18L82.04 4.18Q82.13 4.03 81.83 4.02L81.83 4.02L81.83 4.02Q81.63 4.01 81.46 4.05L81.46 4.05L81.46 4.05Q80.76 4.17 80.60 4.44L80.60 4.44L80.60 4.44Q78.92 7.29 79.02 10.75L79.02 10.75L79.02 10.75Q79.06 10.83 79.15 10.84L79.15 10.84L79.15 10.84Q80.22 10.96 81.12 10.17L81.12 10.17L81.12 10.17Q81.72 9.63 82.40 8.46L82.40 8.46L82.40 8.46Q82.47 8.35 82.56 8.19L82.56 8.19L82.56 8.19Q82.48 8.54 81.90 10.96L81.90 10.96L81.90 10.96Q81.85 11.21 82.49 11.09L82.49 11.09L82.49 11.09Q82.79 11.04 83.04 10.92L83.04 10.92L83.04 10.92Q83.32 10.79 83.34 10.70L83.34 10.70L83.34 10.70Q84.45 6.05 84.58 4.16L84.58 4.16L84.58 4.16Q84.59 3.98 83.90 4.13L83.90 4.13L83.90 4.13Q83.21 4.28 83.13 4.49L83.13 4.49ZM88.35 4.08L88.35 4.08Q87.80 4.06 87.04 4.06L87.04 4.06L87.04 4.06Q87.30 3.21 87.68 2.17L87.68 2.17L87.68 2.17Q87.78 1.92 87.10 2.04L87.10 2.04L87.10 2.04Q86.34 2.18 86.24 2.44L86.24 2.44L86.24 2.44Q85.92 3.32 85.67 4.08L85.67 4.08L85.67 4.08Q85.47 4.08 85.32 4.08L85.32 4.08L85.32 4.08Q84.73 4.08 84.29 4.36L84.29 4.36L84.29 4.36Q84.11 4.47 84.13 4.57L84.13 4.57L84.13 4.57Q84.16 4.67 84.37 4.67L84.37 4.67L84.37 4.67Q84.68 4.67 85.50 4.66L85.50 4.66L85.50 4.66Q85.18 5.76 84.99 6.75L84.99 6.75L84.99 6.75Q84.93 7.12 84.84 7.70L84.84 7.70L84.84 7.70Q84.73 8.47 84.70 8.65L84.70 8.65L84.70 8.65Q84.53 9.73 84.82 10.40L84.82 10.40L84.82 10.40Q85.09 11.02 85.66 11.02L85.66 11.02L85.66 11.02Q86.69 11.01 87.34 10.36L87.34 10.36L87.34 10.36Q88.20 9.47 88.35 8.22L88.35 8.22L88.35 8.22Q88.36 8.16 88.14 8.15L88.14 8.15L88.14 8.15Q87.92 8.13 87.64 8.19L87.64 8.19L87.64 8.19Q86.93 8.32 86.88 8.61L86.88 8.61L86.88 8.61Q86.80 9.32 86.30 10.09L86.30 10.09L86.30 10.09Q86.15 9.79 86.10 9.34L86.10 9.34L86.10 9.34Q86.05 8.91 86.24 7.82L86.24 7.82L86.24 7.82Q86.27 7.63 86.39 6.88L86.39 6.88L86.39 6.88Q86.47 6.30 86.55 5.93L86.55 5.93L86.55 5.93Q86.68 5.32 86.86 4.66L86.86 4.66L86.86 4.66Q87.17 4.66 87.40 4.67L87.40 4.67L87.40 4.67Q87.94 4.70 88.43 4.40L88.43 4.40L88.43 4.40Q88.61 4.29 88.58 4.19L88.58 4.19L88.58 4.19Q88.55 4.09 88.35 4.08L88.35 4.08Z"></path></g><!----><g data-v-423bf9ae="" id="344176b8-dfbd-44b8-be19-b5432d9c7cf8" transform="matrix(1.1249998927116496,0,0,1.1249998927116496,149.75005888939498,-11.249998927116494)" stroke="none" fill="white"><path d="M12.363 61.524a1 1 0 0 0-1 1.034l.54 16.05a1 1 0 0 0 1 .966h.283l.28 9.455a1 1 0 0 0 .999.971h24.468a1 1 0 0 0 1-.97l.109-3.709H89a1 1 0 0 0 1-1V31.57c0-1.745-.449-3.505-1.318-5.124l-5.121-8.667V11a1 1 0 0 0-1-1H41.468a1 1 0 0 0-1 1v6.777l-5.14 8.703a10.812 10.812 0 0 0-1.3 5.088v8.628h-19.97a1 1 0 0 0-.988.845l-.967 6.156h-.857a1 1 0 0 0-.999.957l-.246 5.77A1 1 0 0 0 11 54.966h1.46l.194 6.557h-.291zm27.639 2l-.473 14.05H13.87l-.473-14.05h26.605zM15.436 88l-.25-8.426h23.025L37.96 88H15.437zM40.1 83.321l.11-3.747h.285a1 1 0 0 0 1-.967l.13-3.857H88v8.571H40.1zm-3.032-55.858l4.963-8.4h2.246a1 1 0 0 0 0-2h-1.81V12h39.093v5.062h-1.527a1 1 0 0 0 0 2h1.963l4.942 8.364A8.681 8.681 0 0 1 88 31.569v2.848H36.03v-2.848a8.65 8.65 0 0 1 1.04-4.106zm-1.04 8.954H88V72.75H41.692l.344-10.192a1 1 0 0 0-1-1.034h-.29l.193-6.557h1.46a1.001 1.001 0 0 0 .999-1.043l-.247-5.769a1 1 0 0 0-.999-.957h-.856l-.967-6.156a1 1 0 0 0-.988-.845H36.03v-3.78zm-21.116 5.78h23.573l.786 5H14.127l.786-5zm-2.708 7h28.99l.16 3.77H12.043l.162-3.77zm2.256 5.77h24.477l-.194 6.557h-24.09l-.193-6.557z"></path><path d="M48.339 19.063h2.278a1 1 0 0 0 0-2H48.34a1 1 0 0 0 0 2zM54.678 19.063h2.278a1 1 0 0 0 0-2h-2.278a1 1 0 0 0 0 2zM61.017 19.063h2.278a1 1 0 0 0 0-2h-2.278a1 1 0 0 0 0 2zM67.356 19.063h2.278a1 1 0 0 0 0-2h-2.278a1 1 0 0 0 0 2zM73.695 19.063h2.279a1 1 0 0 0 0-2h-2.279a1 1 0 0 0 0 2z"></path></g><!----></svg>